<?xml version="1.0" encoding="UTF-8" standalone="no"?><svg xmlns="http://www.w3.org/2000/svg" xmlns:xlink="http://www.w3.org/1999/xlink" contentStyleType="text/css" height="908px" preserveAspectRatio="none" style="width:1595px;height:908px;background:#FFFFFF;" version="1.1" viewBox="0 0 1595 908" width="1595px" zoomAndPan="magnify"><defs/><g><text fill="#000000" font-family="sans-serif" font-size="14" font-weight="bold" lengthAdjust="spacing" textLength="86" x="753.5" y="29.9659">DNS Resolve</text><line style="stroke:#181818;stroke-width:0.5;stroke-dasharray:5.0,5.0;" x1="23" x2="23" y1="124.1358" y2="824.5501"/><line style="stroke:#181818;stroke-width:0.5;stroke-dasharray:5.0,5.0;" x1="254" x2="254" y1="124.1358" y2="824.5501"/><line style="stroke:#181818;stroke-width:0.5;stroke-dasharray:5.0,5.0;" x1="503.5" x2="503.5" y1="124.1358" y2="824.5501"/><line style="stroke:#181818;stroke-width:0.5;stroke-dasharray:5.0,5.0;" x1="770.5" x2="770.5" y1="124.1358" y2="824.5501"/><line style="stroke:#181818;stroke-width:0.5;stroke-dasharray:5.0,5.0;" x1="1036.5" x2="1036.5" y1="124.1358" y2="824.5501"/><line style="stroke:#181818;stroke-width:0.5;stroke-dasharray:5.0,5.0;" x1="1296" x2="1296" y1="124.1358" y2="824.5501"/><line style="stroke:#181818;stroke-width:0.5;stroke-dasharray:5.0,5.0;" x1="1488" x2="1488" y1="124.1358" y2="824.5501"/><text fill="#000000" font-family="sans-serif" font-size="14" lengthAdjust="spacing" textLength="31" x="5" y="120.0339">User</text><ellipse cx="23.5" cy="53.5679" fill="#E2E2F0" rx="8" ry="8" style="stroke:#181818;stroke-width:0.5;"/><path d="M23.5,61.5679 L23.5,88.5679 M10.5,69.5679 L36.5,69.5679 M23.5,88.5679 L10.5,103.5679 M23.5,88.5679 L36.5,103.5679 " fill="none" style="stroke:#181818;stroke-width:0.5;"/><text fill="#000000" font-family="sans-serif" font-size="14" lengthAdjust="spacing" textLength="31" x="5" y="838.5161">User</text><ellipse cx="23.5" cy="851.1181" fill="#E2E2F0" rx="8" ry="8" style="stroke:#181818;stroke-width:0.5;"/><path d="M23.5,859.1181 L23.5,886.1181 M10.5,867.1181 L36.5,867.1181 M23.5,886.1181 L10.5,901.1181 M23.5,886.1181 L36.5,901.1181 " fill="none" style="stroke:#181818;stroke-width:0.5;"/><rect fill="#E2E2F0" height="33.0679" rx="2.5" ry="2.5" style="stroke:#181818;stroke-width:0.5;" width="53" x="228" y="90.0679"/><text fill="#000000" font-family="sans-serif" font-size="14" lengthAdjust="spacing" textLength="39" x="235" y="112.0339">Client</text><rect fill="#E2E2F0" height="33.0679" rx="2.5" ry="2.5" style="stroke:#181818;stroke-width:0.5;" width="53" x="228" y="823.5501"/><text fill="#000000" font-family="sans-serif" font-size="14" lengthAdjust="spacing" textLength="39" x="235" y="845.5161">Client</text><rect fill="#E2E2F0" height="33.0679" rx="2.5" ry="2.5" style="stroke:#181818;stroke-width:0.5;" width="128" x="439.5" y="90.0679"/><text fill="#000000" font-family="sans-serif" font-size="14" lengthAdjust="spacing" textLength="114" x="446.5" y="112.0339">Local DNS Server</text><rect fill="#E2E2F0" height="33.0679" rx="2.5" ry="2.5" style="stroke:#181818;stroke-width:0.5;" width="128" x="439.5" y="823.5501"/><text fill="#000000" font-family="sans-serif" font-size="14" lengthAdjust="spacing" textLength="114" x="446.5" y="845.5161">Local DNS Server</text><rect fill="#E2E2F0" height="33.0679" rx="2.5" ry="2.5" style="stroke:#181818;stroke-width:0.5;" width="124" x="708.5" y="90.0679"/><text fill="#000000" font-family="sans-serif" font-size="14" lengthAdjust="spacing" textLength="110" x="715.5" y="112.0339">Root DNS Server</text><rect fill="#E2E2F0" height="33.0679" rx="2.5" ry="2.5" style="stroke:#181818;stroke-width:0.5;" width="124" x="708.5" y="823.5501"/><text fill="#000000" font-family="sans-serif" font-size="14" lengthAdjust="spacing" textLength="110" x="715.5" y="845.5161">Root DNS Server</text><rect fill="#E2E2F0" height="33.0679" rx="2.5" ry="2.5" style="stroke:#181818;stroke-width:0.5;" width="120" x="976.5" y="90.0679"/><text fill="#000000" font-family="sans-serif" font-size="14" lengthAdjust="spacing" textLength="106" x="983.5" y="112.0339">'.ch' DNS Server</text><rect fill="#E2E2F0" height="33.0679" rx="2.5" ry="2.5" style="stroke:#181818;stroke-width:0.5;" width="120" x="976.5" y="823.5501"/><text fill="#000000" font-family="sans-serif" font-size="14" lengthAdjust="spacing" textLength="106" x="983.5" y="845.5161">'.ch' DNS Server</text><rect fill="#E2E2F0" height="33.0679" rx="2.5" ry="2.5" style="stroke:#181818;stroke-width:0.5;" width="163" x="1215" y="90.0679"/><text fill="#000000" font-family="sans-serif" font-size="14" lengthAdjust="spacing" textLength="149" x="1222" y="112.0339">'admin.ch' DNS Server</text><rect fill="#E2E2F0" height="33.0679" rx="2.5" ry="2.5" style="stroke:#181818;stroke-width:0.5;" width="163" x="1215" y="823.5501"/><text fill="#000000" font-family="sans-serif" font-size="14" lengthAdjust="spacing" textLength="149" x="1222" y="845.5161">'admin.ch' DNS Server</text><rect fill="#E2E2F0" height="33.0679" rx="2.5" ry="2.5" style="stroke:#181818;stroke-width:0.5;" width="201" x="1388" y="90.0679"/><text fill="#000000" font-family="sans-serif" font-size="14" lengthAdjust="spacing" textLength="187" x="1395" y="112.0339">'www.admin.ch' Web Server</text><rect fill="#E2E2F0" height="33.0679" rx="2.5" ry="2.5" style="stroke:#181818;stroke-width:0.5;" width="201" x="1388" y="823.5501"/><text fill="#000000" font-family="sans-serif" font-size="14" lengthAdjust="spacing" textLength="187" x="1395" y="845.5161">'www.admin.ch' Web Server</text><polygon fill="#181818" points="242.5,153.8419,252.5,157.8419,242.5,161.8419,246.5,157.8419" style="stroke:#181818;stroke-width:1.0;"/><line style="stroke:#181818;stroke-width:1.0;" x1="23.5" x2="248.5" y1="157.8419" y2="157.8419"/><text fill="#000000" font-family="sans-serif" font-size="13" lengthAdjust="spacing" textLength="115" x="81.5" y="152.0328">Open Web Browser</text><polygon fill="#181818" points="242.5,185.5479,252.5,189.5479,242.5,193.5479,246.5,189.5479" style="stroke:#181818;stroke-width:1.0;"/><line style="stroke:#181818;stroke-width:1.0;" x1="23.5" x2="248.5" y1="189.5479" y2="189.5479"/><text fill="#000000" font-family="sans-serif" font-size="13" lengthAdjust="spacing" textLength="207" x="35.5" y="183.7389">Type www.admin.ch in address bar</text><line style="stroke:#181818;stroke-width:1.0;" x1="254.5" x2="296.5" y1="221.2539" y2="221.2539"/><line style="stroke:#181818;stroke-width:1.0;" x1="296.5" x2="296.5" y1="221.2539" y2="234.2539"/><line style="stroke:#181818;stroke-width:1.0;" x1="255.5" x2="296.5" y1="234.2539" y2="234.2539"/><polygon fill="#181818" points="265.5,230.2539,255.5,234.2539,265.5,238.2539,261.5,234.2539" style="stroke:#181818;stroke-width:1.0;"/><text fill="#000000" font-family="sans-serif" font-size="13" lengthAdjust="spacing" textLength="37" x="261.5" y="215.4449">Query</text><text fill="#000000" font-family="sans-serif" font-size="13" font-weight="bold" lengthAdjust="spacing" textLength="99" x="301.5" y="215.4449">www.admin.ch</text><text fill="#000000" font-family="sans-serif" font-size="13" lengthAdjust="spacing" textLength="69" x="403.5" y="215.4449">to hosts file</text><line style="stroke:#FF0000;stroke-width:1.0;" x1="254.5" x2="296.5" y1="265.9599" y2="265.9599"/><line style="stroke:#FF0000;stroke-width:1.0;" x1="296.5" x2="296.5" y1="265.9599" y2="278.9599"/><line style="stroke:#FF0000;stroke-width:1.0;" x1="267.5" x2="296.5" y1="278.9599" y2="278.9599"/><line style="stroke:#FF0000;stroke-width:2.0;" x1="260.5" x2="270.5" y1="273.9599" y2="283.9599"/><line style="stroke:#FF0000;stroke-width:2.0;" x1="260.5" x2="270.5" y1="283.9599" y2="273.9599"/><text fill="#000000" font-family="sans-serif" font-size="13" font-weight="bold" lengthAdjust="spacing" textLength="99" x="261.5" y="260.1509">www.admin.ch</text><text fill="#000000" font-family="sans-serif" font-size="13" lengthAdjust="spacing" textLength="103" x="363.5" y="260.1509">is not in hosts file</text><polygon fill="#181818" points="491.5,306.6659,501.5,310.6659,491.5,314.6659,495.5,310.6659" style="stroke:#181818;stroke-width:1.0;"/><line style="stroke:#181818;stroke-width:1.0;" x1="254.5" x2="497.5" y1="310.6659" y2="310.6659"/><text fill="#000000" font-family="sans-serif" font-size="13" lengthAdjust="spacing" textLength="37" x="309.5" y="304.8569">Query</text><text fill="#000000" font-family="sans-serif" font-size="13" font-weight="bold" lengthAdjust="spacing" textLength="99" x="349.5" y="304.8569">www.admin.ch</text><line style="stroke:#FF0000;stroke-width:1.0;" x1="503.5" x2="545.5" y1="342.3719" y2="342.3719"/><line style="stroke:#FF0000;stroke-width:1.0;" x1="545.5" x2="545.5" y1="342.3719" y2="355.3719"/><line style="stroke:#FF0000;stroke-width:1.0;" x1="516.5" x2="545.5" y1="355.3719" y2="355.3719"/><line style="stroke:#FF0000;stroke-width:2.0;" x1="509.5" x2="519.5" y1="350.3719" y2="360.3719"/><line style="stroke:#FF0000;stroke-width:2.0;" x1="509.5" x2="519.5" y1="360.3719" y2="350.3719"/><text fill="#000000" font-family="sans-serif" font-size="13" font-weight="bold" lengthAdjust="spacing" textLength="99" x="510.5" y="336.5629">www.admin.ch</text><text fill="#000000" font-family="sans-serif" font-size="13" lengthAdjust="spacing" textLength="151" x="612.5" y="336.5629">is not on local DNS server</text><polygon fill="#181818" points="758.5,383.0779,768.5,387.0779,758.5,391.0779,762.5,387.0779" style="stroke:#181818;stroke-width:1.0;"/><line style="stroke:#181818;stroke-width:1.0;" x1="503.5" x2="764.5" y1="387.0779" y2="387.0779"/><text fill="#000000" font-family="sans-serif" font-size="13" lengthAdjust="spacing" textLength="37" x="567.5" y="381.2689">Query</text><text fill="#000000" font-family="sans-serif" font-size="13" font-weight="bold" lengthAdjust="spacing" textLength="99" x="607.5" y="381.2689">www.admin.ch</text><line style="stroke:#181818;stroke-width:1.0;" x1="770.5" x2="812.5" y1="418.784" y2="418.784"/><line style="stroke:#181818;stroke-width:1.0;" x1="812.5" x2="812.5" y1="418.784" y2="431.784"/><line style="stroke:#181818;stroke-width:1.0;" x1="771.5" x2="812.5" y1="431.784" y2="431.784"/><polygon fill="#181818" points="781.5,427.784,771.5,431.784,781.5,435.784,777.5,431.784" style="stroke:#181818;stroke-width:1.0;"/><text fill="#000000" font-family="sans-serif" font-size="13" font-weight="bold" lengthAdjust="spacing" textLength="99" x="777.5" y="412.975">www.admin.ch</text><text fill="#000000" font-family="sans-serif" font-size="13" lengthAdjust="spacing" textLength="150" x="879.5" y="412.975">is not on root DNS server</text><polygon fill="#181818" points="514.5,459.49,504.5,463.49,514.5,467.49,510.5,463.49" style="stroke:#181818;stroke-width:1.0;"/><line style="stroke:#181818;stroke-width:1.0;" x1="508.5" x2="769.5" y1="463.49" y2="463.49"/><text fill="#000000" font-family="sans-serif" font-size="13" font-weight="bold" lengthAdjust="spacing" textLength="20" x="519.5" y="457.681">.ch</text><text fill="#000000" font-family="sans-serif" font-size="13" lengthAdjust="spacing" textLength="212" x="542.5" y="457.681">DNS server knows more, query that</text><polygon fill="#181818" points="1024.5,491.196,1034.5,495.196,1024.5,499.196,1028.5,495.196" style="stroke:#181818;stroke-width:1.0;"/><line style="stroke:#181818;stroke-width:1.0;" x1="503.5" x2="1030.5" y1="495.196" y2="495.196"/><text fill="#000000" font-family="sans-serif" font-size="13" lengthAdjust="spacing" textLength="37" x="700.5" y="489.387">Query</text><text fill="#000000" font-family="sans-serif" font-size="13" font-weight="bold" lengthAdjust="spacing" textLength="99" x="740.5" y="489.387">www.admin.ch</text><line style="stroke:#FF0000;stroke-width:1.0;" x1="1036.5" x2="1078.5" y1="526.902" y2="526.902"/><line style="stroke:#FF0000;stroke-width:1.0;" x1="1078.5" x2="1078.5" y1="526.902" y2="539.902"/><line style="stroke:#FF0000;stroke-width:1.0;" x1="1049.5" x2="1078.5" y1="539.902" y2="539.902"/><line style="stroke:#FF0000;stroke-width:2.0;" x1="1042.5" x2="1052.5" y1="534.902" y2="544.902"/><line style="stroke:#FF0000;stroke-width:2.0;" x1="1042.5" x2="1052.5" y1="544.902" y2="534.902"/><text fill="#000000" font-family="sans-serif" font-size="13" font-weight="bold" lengthAdjust="spacing" textLength="99" x="1043.5" y="521.093">www.admin.ch</text><text fill="#000000" font-family="sans-serif" font-size="13" lengthAdjust="spacing" textLength="52" x="1145.5" y="521.093">is not on</text><text fill="#000000" font-family="sans-serif" font-size="13" font-weight="bold" lengthAdjust="spacing" textLength="20" x="1200.5" y="521.093">.ch</text><text fill="#000000" font-family="sans-serif" font-size="13" lengthAdjust="spacing" textLength="66" x="1223.5" y="521.093">DNS server</text><polygon fill="#181818" points="514.5,567.608,504.5,571.608,514.5,575.608,510.5,571.608" style="stroke:#181818;stroke-width:1.0;"/><line style="stroke:#181818;stroke-width:1.0;" x1="508.5" x2="1035.5" y1="571.608" y2="571.608"/><text fill="#000000" font-family="sans-serif" font-size="13" font-weight="bold" lengthAdjust="spacing" textLength="62" x="580" y="565.799">admin.ch</text><text fill="#000000" font-family="sans-serif" font-size="13" lengthAdjust="spacing" textLength="315" x="645" y="565.799">[ 162.23.130.190 ] DNS server knows more, query that</text><polygon fill="#181818" points="1284.5,599.314,1294.5,603.314,1284.5,607.314,1288.5,603.314" style="stroke:#181818;stroke-width:1.0;"/><line style="stroke:#181818;stroke-width:1.0;" x1="503.5" x2="1290.5" y1="603.314" y2="603.314"/><text fill="#000000" font-family="sans-serif" font-size="13" lengthAdjust="spacing" textLength="37" x="830.5" y="597.505">Query</text><text fill="#000000" font-family="sans-serif" font-size="13" font-weight="bold" lengthAdjust="spacing" textLength="99" x="870.5" y="597.505">www.admin.ch</text><line style="stroke:#008000;stroke-width:1.0;" x1="1296.5" x2="1338.5" y1="635.0201" y2="635.0201"/><line style="stroke:#008000;stroke-width:1.0;" x1="1338.5" x2="1338.5" y1="635.0201" y2="648.0201"/><line style="stroke:#008000;stroke-width:1.0;" x1="1297.5" x2="1338.5" y1="648.0201" y2="648.0201"/><polygon fill="#008000" points="1307.5,644.0201,1297.5,648.0201,1307.5,652.0201,1303.5,648.0201" style="stroke:#008000;stroke-width:1.0;"/><text fill="#000000" font-family="sans-serif" font-size="13" lengthAdjust="spacing" textLength="37" x="1303.5" y="629.2111">Query</text><text fill="#000000" font-family="sans-serif" font-size="13" font-weight="bold" lengthAdjust="spacing" textLength="99" x="1343.5" y="629.2111">www.admin.ch</text><polygon fill="#181818" points="514.5,675.7261,504.5,679.7261,514.5,683.7261,510.5,679.7261" style="stroke:#181818;stroke-width:1.0;"/><line style="stroke:#181818;stroke-width:1.0;" x1="508.5" x2="1295.5" y1="679.7261" y2="679.7261"/><text fill="#000000" font-family="sans-serif" font-size="13" lengthAdjust="spacing" textLength="29" x="820.5" y="673.9171">Host</text><text fill="#000000" font-family="sans-serif" font-size="13" font-weight="bold" lengthAdjust="spacing" textLength="33" x="852.5" y="673.9171">www</text><text fill="#000000" font-family="sans-serif" font-size="13" lengthAdjust="spacing" textLength="91" x="888.5" y="673.9171">is 18.165.183.71</text><polygon fill="#181818" points="265.5,707.4321,255.5,711.4321,265.5,715.4321,261.5,711.4321" style="stroke:#181818;stroke-width:1.0;"/><line style="stroke:#181818;stroke-width:1.0;" x1="259.5" x2="502.5" y1="711.4321" y2="711.4321"/><text fill="#000000" font-family="sans-serif" font-size="13" lengthAdjust="spacing" textLength="29" x="266.5" y="705.6231">Host</text><text fill="#000000" font-family="sans-serif" font-size="13" font-weight="bold" lengthAdjust="spacing" textLength="99" x="298.5" y="705.6231">www.admin.ch</text><text fill="#000000" font-family="sans-serif" font-size="13" lengthAdjust="spacing" textLength="91" x="400.5" y="705.6231">is 18.165.183.71</text><polygon fill="#181818" points="1476.5,739.1381,1486.5,743.1381,1476.5,747.1381,1480.5,743.1381" style="stroke:#181818;stroke-width:1.0;"/><line style="stroke:#181818;stroke-width:1.0;" x1="254.5" x2="1482.5" y1="743.1381" y2="743.1381"/><text fill="#000000" font-family="sans-serif" font-size="13" lengthAdjust="spacing" textLength="98" x="822.5" y="737.3291">Query web page</text><polygon fill="#181818" points="265.5,770.8441,255.5,774.8441,265.5,778.8441,261.5,774.8441" style="stroke:#181818;stroke-width:1.0;"/><line style="stroke:#181818;stroke-width:1.0;" x1="259.5" x2="1487.5" y1="774.8441" y2="774.8441"/><text fill="#000000" font-family="sans-serif" font-size="13" lengthAdjust="spacing" textLength="102" x="820.5" y="769.0351">Return web page</text><polygon fill="#181818" points="34.5,802.5501,24.5,806.5501,34.5,810.5501,30.5,806.5501" style="stroke:#181818;stroke-width:1.0;"/><line style="stroke:#181818;stroke-width:1.0;" x1="28.5" x2="253.5" y1="806.5501" y2="806.5501"/><text fill="#000000" font-family="sans-serif" font-size="13" lengthAdjust="spacing" textLength="104" x="87" y="800.7411">Display web page</text><!--SRC=[bPD1J-Cm48Nl_XKZze1KiH5fby9ogCIsXwvKGAIBUa0zc6IsjKZjOBja-VTC78UuOOF4fLMKxxrvUHvRONE4sSqI4ZGgVq76U6gLXdk36hY1-sK2IcVq4BE2QojIKN1fOPeBf3yYfWiF30-0euLAUUwibwXVK1zLyA9whl7H8PuePRjqqj8_3kdZADqUT_7ftCDd7PXdEo7_fxYQNV- -UPUDExAoBADMkiB7KBfQhRpid37p92Hf-Ow8vptA5A_H6Bx1grnivAvgAgKVr8nLXNwVK6kNS5kWTBQ_j2gfx_3TdzS28Gm0GWBFCas-yCZ9Y7htxDqUzIiC1Y4-681Li5N66lWhSdJumpUDsNhopwa-yCA0f3EWEO7CZwdEhMyGSuVQcjTidxsIaBzlXd5zCkymSGVUEoOvW3xnryqgUVj6s0Ih-HQ09qdzmqvfF85dDznkkMrZJUUzeMXvWbhdd-RwEDd9ss21wW7YyJ0QZg9uT1h5FqzX_PN0VgzxKpTxJz4t6b6klo1fuivfIMgi_iZu8eh7Pr5yCOhEuw2xHOXsYkbewbsZczMaAEbo57IDM7NRl5c2Tgzb-yghwEvSmaoO8kU1xWq0]--></g></svg>