<?xml version="1.0" encoding="UTF-8" standalone="no"?><svg xmlns="http://www.w3.org/2000/svg" xmlns:xlink="http://www.w3.org/1999/xlink" contentStyleType="text/css" height="424px" preserveAspectRatio="none" style="width:1660px;height:424px;background:#FFFFFF;" version="1.1" viewBox="0 0 1660 424" width="1660px" zoomAndPan="magnify"><defs/><g><text fill="#000000" font-family="sans-serif" font-size="56" font-weight="bold" lengthAdjust="spacing" textLength="836" x="385" y="99.8637">Forward- and Reverse-Lookup</text><g id="elem_Hostname"><rect fill="#F1F1F1" height="200.5433" style="stroke:#181818;stroke-width:2.0;" width="496" x="28" y="188.2717"/><text fill="#000000" font-family="sans-serif" font-size="56" lengthAdjust="spacing" textLength="272" x="140" y="256.1354">Hostname</text><line style="stroke:#181818;stroke-width:2.0;" x1="32" x2="520" y1="280.5433" y2="280.5433"/><text fill="#000000" font-family="sans-serif" font-size="56" lengthAdjust="spacing" textLength="448" x="52" y="356.4071">Nice for humans</text></g><g id="elem_IP"><rect fill="#F1F1F1" height="200.5433" style="stroke:#181818;stroke-width:2.0;" width="564" x="1070" y="188.2717"/><text fill="#000000" font-family="sans-serif" font-size="56" lengthAdjust="spacing" textLength="292" x="1206" y="256.1354">IP-Address</text><line style="stroke:#181818;stroke-width:2.0;" x1="1074" x2="1630" y1="280.5433" y2="280.5433"/><text fill="#000000" font-family="sans-serif" font-size="56" lengthAdjust="spacing" textLength="516" x="1094" y="356.4071">Nice for computers</text></g><!--link Hostname to IP--><g id="link_Hostname_IP"><path codeLine="13" d="M525.56,288.2717 C679.96,288.2717 879.36,288.2717 1043.6,288.2717 " fill="none" id="Hostname-to-IP" style="stroke:#181818;stroke-width:4.0;"/><polygon fill="#181818" points="1063.6,288.2717,1027.6,272.2717,1043.6,288.2717,1027.6,304.2717,1063.6,288.2717" style="stroke:#181818;stroke-width:4.0;"/><text fill="#000000" font-family="sans-serif" font-size="52" lengthAdjust="spacing" textLength="400" x="597" y="259.8597">Forward-Lookup</text></g><!--link IP to Hostname--><g id="link_IP_Hostname"><path codeLine="14" d="M1068.64,364.6717 C1043.88,369.3517 1019.08,373.3517 995,376.2717 C820.28,397.4717 773.44,399.5917 599,376.2717 C582.76,374.0717 566.16,371.3117 549.48,368.1117 " fill="none" id="IP-to-Hostname" style="stroke:#181818;stroke-width:4.0;"/><polygon fill="#181818" points="531,364.3517,563.1375,387.1372,550.6072,368.296,569.4484,355.7657,531,364.3517" style="stroke:#181818;stroke-width:4.0;"/><text fill="#000000" font-family="sans-serif" font-size="52" lengthAdjust="spacing" textLength="388" x="603" y="359.8597">Reverse-Lookup</text></g><!--SRC=[NOx12i8m38RlUOgmUs5ut47m8Wv4Xc-GjH6djXbDguVXkrj12thEz_tvqfHkZ5k93uhE80M7HxvpL3PxaMkU0THIGLPj2o3ZXMt2dMWAv1aNG3nCbl4a4S_PKr1uLgpf1xDnBh9gWwJO3x-25J_dL7wzdRffrWNiQjAdehZby8Mw_yWN]--></g></svg>